<?xml version="1.0" standalone="no"?>
<!DOCTYPE svg PUBLIC "-//W3C//DTD SVG 20010904//EN"
 "http://www.w3.org/TR/2001/REC-SVG-20010904/DTD/svg10.dtd">
<svg version="1.0" xmlns="http://www.w3.org/2000/svg"
 width="1024.000000pt" height="1024.000000pt" viewBox="0 0 1024.000000 1024.000000"
 preserveAspectRatio="xMidYMid meet">

<g transform="translate(0.000000,1024.000000) scale(0.100000,-0.100000)"
fill="#000000" stroke="none">
<path d="M0 5120 l0 -5120 5120 0 5120 0 0 5120 0 5120 -5120 0 -5120 0 0
-5120z m6969 1974 c65 -19 136 -82 164 -144 28 -63 27 -159 -3 -228 -20 -46
-87 -116 -493 -517 l-471 -464 12 -248 c7 -136 17 -360 22 -498 6 -137 17
-367 25 -510 8 -143 19 -363 25 -490 5 -126 12 -263 15 -302 3 -41 1 -91 -5
-114 -14 -51 -80 -124 -127 -140 -54 -18 -135 -7 -182 24 -49 33 -72 75 -100
187 -12 47 -42 150 -66 230 -24 80 -68 235 -98 345 -64 231 -230 807 -246 848
-8 20 -15 26 -25 20 -34 -20 -867 -850 -872 -869 -3 -12 4 -136 15 -275 12
-140 22 -293 24 -340 2 -82 0 -89 -28 -130 -16 -23 -48 -51 -69 -62 -78 -41
-197 -13 -243 55 -20 31 -98 235 -185 488 -22 63 -53 147 -69 186 l-30 72 -82
36 c-643 280 -623 270 -653 328 -34 65 -4 173 62 223 77 59 80 59 326 20 123
-20 257 -42 298 -50 41 -8 103 -16 136 -17 l62 -3 451 439 c249 241 450 443
449 448 -5 13 -79 41 -493 183 -779 267 -1054 371 -1096 411 -41 39 -62 90
-61 151 0 64 27 112 85 154 74 53 50 55 767 -47 250 -35 550 -78 665 -94 116
-16 351 -50 523 -75 172 -25 317 -45 322 -45 5 0 180 164 390 365 210 201 400
376 423 390 51 29 135 52 238 64 113 13 141 12 198 -5z"/>
</g>
</svg>
